<svg id="Calque_1" data-name="Calque 1" xmlns="http://www.w3.org/2000/svg" viewBox="0 0 30 30"><defs><style>.cls-1{fill:#432918;}</style></defs><path class="cls-1" d="M4.57,27.23c-.4-.27-.45-.69-.09-.88a.83.83,0,0,1,.27-.07,3,3,0,0,1,.3,0V9.83c0-.56.13-.69.68-.69h8.84V3.48c0-.47.16-.62.63-.62h9.21c.48,0,.63.15.63.64V26.28c.34,0,.7,0,.8.38s-.1.45-.32.57Zm19.5-1V3.82H15.54V24.38h.88c.36,0,.57.17.58.46s-.21.49-.58.49h-.89v.94h3.8V24a.47.47,0,0,1,.52-.52h2.78a.47.47,0,0,1,.51.5v2.34ZM6,10.1V24.36h.92a.48.48,0,1,1,0,.95H6v.94H9.81V24a.48.48,0,0,1,.55-.55h2.69c.39,0,.56.17.57.56v2.27h.94V10.1Zm4.75,16.17h1.88V24.39H10.77Zm9.52,0h1.89V24.39H20.29Z"/><path class="cls-1" d="M26.57,27.23a1.59,1.59,0,0,1-.28-.36.44.44,0,0,1,.26-.54.47.47,0,0,1,.59.15l.09.14v.61Z"/><path class="cls-1" d="M3.19,27.23c-.31-.21-.4-.4-.3-.64a.48.48,0,0,1,.9,0,.47.47,0,0,1-.15.54l-.12.1Z"/><path class="cls-1" d="M19.82,11.05c.8-.06.85.26.83.83v.26a.51.51,0,0,1-.59.57h-.55a.48.48,0,0,1-.54-.47,4.21,4.21,0,0,1,0-.71.47.47,0,0,1,.54-.48C19.61,11,19.71,11.05,19.82,11.05Z"/><path class="cls-1" d="M19.79,7c-.79.06-.85-.26-.83-.84V5.87a.52.52,0,0,1,.58-.54h.57a.48.48,0,0,1,.53.46,4.57,4.57,0,0,1,0,.74c0,.32-.21.46-.54.47Z"/><path class="cls-1" d="M19.8,21.28c-.8.06-.86-.25-.84-.85v-.29a.5.5,0,0,1,.57-.52,5.42,5.42,0,0,1,.57,0,.47.47,0,0,1,.54.47,4.45,4.45,0,0,1,0,.73.47.47,0,0,1-.53.46Z"/><path class="cls-1" d="M19.79,9.85C19,9.91,18.94,9.59,19,9V8.78c0-.41.19-.59.6-.59h.55a.48.48,0,0,1,.53.45,4.57,4.57,0,0,1,0,.74.47.47,0,0,1-.54.47Z"/><path class="cls-1" d="M19.79,15.57c-.79.06-.85-.26-.83-.83v-.27a.52.52,0,0,1,.6-.57h.54c.32,0,.51.15.54.46a4.69,4.69,0,0,1,0,.75.49.49,0,0,1-.54.46Z"/><path class="cls-1" d="M19.81,18.43c-.81.05-.87-.26-.85-.85v-.26a.51.51,0,0,1,.58-.56h.58a.46.46,0,0,1,.51.44,3.39,3.39,0,0,1,0,.78.45.45,0,0,1-.51.44Z"/><path class="cls-1" d="M16.47,6.17c0-.76.08-.84.82-.84s.85.07.85.84-.08.83-.82.83S16.47,6.93,16.47,6.17Z"/><path class="cls-1" d="M22.31,7c-.76,0-.84-.08-.84-.82s.07-.85.84-.85.83.08.83.82S23.07,7,22.31,7Z"/><path class="cls-1" d="M18.14,9c0,.73-.08.81-.81.81s-.86-.06-.86-.84.09-.82.82-.82S18.14,8.26,18.14,9Z"/><path class="cls-1" d="M22.3,9.85c-.75,0-.83-.07-.83-.82s.07-.84.84-.84.83.07.83.83S23.07,9.85,22.3,9.85Z"/><path class="cls-1" d="M17.33,11.05c.73,0,.81.08.81.82s-.07.84-.83.84-.84-.07-.84-.82S16.54,11.05,17.33,11.05Z"/><path class="cls-1" d="M22.31,12.71c-.76,0-.84-.07-.84-.82s.07-.84.84-.84.83.07.83.82S23.07,12.71,22.31,12.71Z"/><path class="cls-1" d="M17.31,18.43c-.76,0-.84-.08-.84-.83s.07-.84.84-.84.83.07.83.82S18.07,18.43,17.31,18.43Z"/><path class="cls-1" d="M22.31,18.43c-.76,0-.84-.08-.84-.83s.07-.84.84-.84.83.07.83.82S23.07,18.43,22.31,18.43Z"/><path class="cls-1" d="M22.31,13.9c.76,0,.83.08.83.83s-.07.84-.84.84-.83-.08-.83-.83S21.54,13.9,22.31,13.9Z"/><path class="cls-1" d="M18.14,20.47c0,.73-.08.81-.82.81s-.85-.06-.85-.85.08-.81.82-.81S18.14,19.68,18.14,20.47Z"/><path class="cls-1" d="M22.31,19.62c.75,0,.83.07.83.82s-.07.84-.83.84-.84-.07-.84-.82S21.54,19.62,22.31,19.62Z"/><path class="cls-1" d="M18.14,14.74c0,.76-.07.83-.85.83s-.82-.08-.82-.83.07-.84.85-.84S18.14,14,18.14,14.74Z"/><path class="cls-1" d="M17.42,24.85a.46.46,0,0,1,.48-.47.48.48,0,1,1,0,.95A.47.47,0,0,1,17.42,24.85Z"/><path class="cls-1" d="M10.27,15.57c-.79.06-.85-.26-.83-.84V14.5c0-.42.19-.6.6-.6h.54a.47.47,0,0,1,.53.46,3.56,3.56,0,0,1,0,.73.49.49,0,0,1-.54.48Z"/><path class="cls-1" d="M10.3,18.43c-.82.05-.88-.23-.86-.88a2.42,2.42,0,0,1,0-.38.47.47,0,0,1,.5-.41h.64a.46.46,0,0,1,.51.45,3.86,3.86,0,0,1,0,.76.47.47,0,0,1-.53.45Z"/><path class="cls-1" d="M10.28,12.71c-.81.06-.86-.25-.84-.84,0-.11,0-.21,0-.31a.49.49,0,0,1,.56-.51,5.8,5.8,0,0,1,.59,0,.45.45,0,0,1,.52.44,3.86,3.86,0,0,1,0,.76.48.48,0,0,1-.53.46Z"/><path class="cls-1" d="M10.3,19.62c.79-.06.85.26.83.84v.26a.51.51,0,0,1-.58.56H10a.47.47,0,0,1-.53-.46,4.45,4.45,0,0,1,0-.73.48.48,0,0,1,.54-.47Z"/><path class="cls-1" d="M7.78,12.71c-.75,0-.83-.07-.83-.82s.07-.84.84-.84.83.07.83.82S8.55,12.71,7.78,12.71Z"/><path class="cls-1" d="M13.62,11.88c0,.76-.08.83-.83.83s-.84-.07-.84-.83.08-.83.82-.83S13.62,11.12,13.62,11.88Z"/><path class="cls-1" d="M8.62,17.59c0,.76-.08.84-.82.84S7,18.36,7,17.59s.08-.83.82-.83S8.62,16.83,8.62,17.59Z"/><path class="cls-1" d="M7,20.45c0-.76.07-.83.85-.83s.82.07.82.83-.07.83-.85.83S7,21.21,7,20.45Z"/><path class="cls-1" d="M12.78,21.28c-.75,0-.83-.07-.83-.82s.07-.84.84-.84.83.07.83.82S13.55,21.28,12.78,21.28Z"/><path class="cls-1" d="M12.79,16.76c.75,0,.83.07.83.82s-.07.85-.84.85S12,18.35,12,17.6,12,16.76,12.79,16.76Z"/><path class="cls-1" d="M13.62,14.76c0,.73-.08.81-.82.81S12,15.5,12,14.71s.08-.81.82-.81S13.62,14,13.62,14.76Z"/><path class="cls-1" d="M7.78,15.57c-.75,0-.83-.08-.83-.82s.07-.85.83-.85.84.08.84.82S8.55,15.57,7.78,15.57Z"/><path class="cls-1" d="M8.36,25.33a.47.47,0,0,1-.46-.5.48.48,0,1,1,.46.5Z"/></svg>